<mxfile host="app.diagrams.net" modified="2023-09-28T09:32:24.965Z" agent="Mozilla/5.0 (Windows NT 10.0; Win64; x64) AppleWebKit/537.36 (KHTML, like Gecko) Chrome/117.0.0.0 Safari/537.36" version="21.8.2" etag="vaUSWtQ3P9lX2Gv8viZM" type="github">
  <diagram name="Trang-1" id="t6aE-cq2p84RbdJ1UP47">
    <mxGraphModel>
      <root>
        <mxCell id="0" />
        <mxCell id="1" parent="0" />
      </root>
    </mxGraphModel>
  </diagram>
</mxfile>
